<svg width="129" height="22" xmlns="http://www.w3.org/2000/svg" xmlns:xlink="http://www.w3.org/1999/xlink" xml:space="preserve" overflow="hidden"><defs><clipPath id="clip0"><rect x="409" y="320" width="129" height="22"/></clipPath></defs><g clip-path="url(#clip0)" transform="translate(-409 -320)"><path d="M0 11.156 0 0.252508 1.8732 0.252508 1.8732 4.88938 6.42902 4.88938 6.42902 0.252508 8.32534 0.252508 8.32534 11.156 6.42902 11.156 6.42902 6.51917 1.8732 6.51917 1.8732 11.156 0 11.156Z" fill="#685DC5" transform="matrix(1.02804 0 0 1 409 320)"/><path d="M13.3437 6.90938 16.35 6.90938 14.87 2.75459 13.3437 6.90938ZM10.0367 11.156 10.0367 10.5363 13.9681 0.252508 15.8182 0.252508 19.7496 10.5363 19.7496 11.156 17.8995 11.156 16.9282 8.47033 12.7655 8.47033 11.7943 11.156 10.0367 11.156Z" fill="#685DC5" transform="matrix(1.02804 0 0 1 409 320)"/><path d="M23.3572 5.37142 25.8548 5.37142C27.0111 5.37142 27.5894 4.79755 27.5894 3.62685 27.5894 2.45617 27.0111 1.8823 25.8548 1.8823L23.3572 1.8823 23.3572 5.37142ZM21.4609 11.156 21.4609 0.252508 26.1786 0.252508C28.3061 0.252508 29.4857 1.49207 29.4857 3.6039 29.4857 5.05006 28.8148 6.19781 27.5429 6.7487L29.6011 10.5363 29.6011 11.156 27.7512 11.156 25.4848 6.95531 23.3572 6.95531 23.3572 11.156 21.4609 11.156Z" fill="#685DC5" transform="matrix(1.02804 0 0 1 409 320)"/><path d="M33.7176 9.52624 36.5852 9.52624C37.626 9.52624 38.1578 9.02125 38.1578 8.03418 38.1578 7.00121 37.6491 6.49622 36.5852 6.49622L33.7176 6.49622 33.7176 9.52624ZM33.7176 4.93528 36.146 4.93528C37.1865 4.93528 37.6952 4.43028 37.6952 3.39732 37.6952 2.3873 37.1865 1.8823 36.146 1.8823L33.7176 1.8823 33.7176 4.93528ZM31.8212 11.156 31.8212 0.252508 36.4464 0.252508C38.4123 0.252508 39.5916 1.23956 39.5916 3.19073 39.5916 4.29255 39.1521 5.05006 38.2735 5.50915 39.4297 5.92235 40.0079 6.79463 40.0079 8.14896 40.0079 10.1231 38.8517 11.179 36.8628 11.179L31.8212 11.179 31.8212 11.156Z" fill="#685DC5" transform="matrix(1.02804 0 0 1 409 320)"/><path d="M48.6569 3.85638C48.6569 2.61683 47.8014 1.74455 46.2288 1.74455 44.6562 1.74455 43.8006 2.63979 43.8006 3.85638L43.8006 7.57506C43.8006 8.81464 44.6562 9.6869 46.2288 9.6869 47.8014 9.6869 48.6569 8.79166 48.6569 7.57506L48.6569 3.85638ZM41.9043 3.94821C41.9043 1.515 43.5692 0.0229432 46.2288 0.0229432 48.8883 0.0229432 50.5533 1.49205 50.5533 3.94821L50.5533 7.46031C50.5533 9.91646 48.8883 11.3856 46.2288 11.3856 43.5692 11.3856 41.9043 9.91646 41.9043 7.46031L41.9043 3.94821Z" fill="#685DC5" transform="matrix(1.02804 0 0 1 409 320)"/><path d="M59.318 0.252508 61.1912 0.252508 61.1912 7.59804C61.1912 8.79169 60.8213 9.70988 60.0581 10.3756 59.318 11.0413 58.3005 11.3626 57.0286 11.3626 55.7567 11.3626 54.7393 11.0413 53.976 10.3756 53.2359 9.70988 52.866 8.76874 52.866 7.59804L52.866 0.252508 54.7393 0.252508 54.7393 7.68987C54.7393 8.83759 55.5486 9.66397 57.0055 9.66397 58.4624 9.66397 59.2718 8.81464 59.2718 7.68987L59.2718 0.252508 59.318 0.252508Z" fill="#685DC5" transform="matrix(1.02804 0 0 1 409 320)"/><path d="M65.7471 5.37142 68.2448 5.37142C69.401 5.37142 69.9793 4.79755 69.9793 3.62685 69.9793 2.45617 69.401 1.8823 68.2448 1.8823L65.7471 1.8823 65.7471 5.37142ZM63.8739 11.156 63.8739 0.252508 68.5917 0.252508C70.7191 0.252508 71.8987 1.49207 71.8987 3.6039 71.8987 5.05006 71.2278 6.19781 69.9793 6.7487L72.0372 10.5363 72.0372 11.156 70.1873 11.156 67.9211 6.95531 65.7471 6.95531 65.7471 11.156 63.8739 11.156Z" fill="#685DC5" transform="matrix(1.02804 0 0 1 409 320)"/><path d="M78.9751 10.4215C78.1657 9.75578 77.7727 8.83759 77.7727 7.62099L79.6457 7.62099C79.6457 8.12599 79.7845 8.53918 80.0621 8.86054 80.6172 9.50329 81.334 9.66397 82.1434 9.66397 83.4615 9.66397 84.2016 9.06715 84.2016 8.24076 84.2016 7.85055 84.0397 7.55214 83.6929 7.34553 83.346 7.13895 82.7216 6.84053 81.8196 6.49622L81.6808 6.45029 81.4266 6.35849C80.2239 5.89939 79.3684 5.46325 78.8594 5.05006 78.3507 4.61392 78.0965 3.99414 78.0965 3.16776 78.0965 2.22661 78.4433 1.44615 79.137 0.872281 79.854 0.298412 80.8253 0 82.051 0 84.5254 0 86.121 1.17069 86.121 3.67278L84.2478 3.67278C84.2478 2.29548 83.2996 1.69866 82.0277 1.69866 80.7791 1.69866 79.9928 2.24957 79.9928 3.03002 79.9928 3.44322 80.1547 3.78753 80.4784 3.97119 80.8022 4.17777 81.4266 4.43028 82.3514 4.7746L82.5828 4.84345C83.1842 5.05006 83.6467 5.23369 83.9936 5.39437 84.3635 5.55505 84.7103 5.76166 85.1036 6.01415 85.8668 6.51917 86.2137 7.2078 86.2137 8.12599 86.2137 10.0312 84.7334 11.3397 82.051 11.3397 80.8253 11.3856 79.8076 11.0642 78.9751 10.4215Z" fill="#685DC5" transform="matrix(1.02804 0 0 1 409 320)"/><path d="M90.4455 5.32552 92.9894 5.32552C93.8452 5.32552 94.4927 4.7287 94.4927 3.6039 94.4927 2.50208 93.8452 1.8823 92.9894 1.8823L90.4455 1.8823 90.4455 5.32552ZM88.5492 11.156 88.5492 0.252508 93.3131 0.252508C95.2559 0.252508 96.4121 1.53798 96.4121 3.6039 96.4121 5.66983 95.2559 6.95531 93.3131 6.95531L90.4455 6.95531 90.4455 11.156 88.5492 11.156Z" fill="#685DC5" transform="matrix(1.02804 0 0 1 409 320)"/><path d="M99.9273 6.90938 102.934 6.90938 101.454 2.75459 99.9273 6.90938ZM96.6433 11.156 96.6433 10.5363 100.575 0.252508 102.425 0.252508 106.356 10.5363 106.356 11.156 104.506 11.156 103.535 8.47033 99.3954 8.47033 98.4011 11.156 96.6433 11.156Z" fill="#685DC5" transform="matrix(1.02804 0 0 1 409 320)"/><path d="M107.744 7.46031 107.744 3.94821C107.744 1.44614 109.293 0.0229432 112.022 0.0229432 113.179 0.0229432 114.15 0.344311 114.913 0.964089 115.676 1.60682 116.069 2.54797 116.069 3.78753L116.069 3.94821 114.196 3.94821 114.196 3.78753C114.196 3.12183 113.965 2.59388 113.525 2.27251 113.063 1.90524 112.577 1.74455 112.022 1.74455 110.426 1.74455 109.663 2.50206 109.663 3.83343L109.663 7.59801C109.663 8.92939 110.45 9.6869 112.022 9.6869 112.577 9.6869 113.063 9.52622 113.525 9.1819 113.988 8.81464 114.196 8.30962 114.196 7.64394L114.196 7.48326 116.069 7.48326 116.069 7.64394C116.069 8.88349 115.676 9.82463 114.913 10.4674 114.15 11.1101 113.179 11.4085 112.022 11.4085 109.316 11.3856 107.744 9.96236 107.744 7.46031Z" fill="#685DC5" transform="matrix(1.02804 0 0 1 409 320)"/><path d="M118.428 11.156 118.428 0.252508 125.458 0.252508 125.458 1.8823 120.301 1.8823 120.301 4.91233 124.741 4.91233 124.741 6.47324 120.301 6.47324 120.301 9.52624 125.481 9.52624 125.481 11.156 118.428 11.156Z" fill="#685DC5" transform="matrix(1.02804 0 0 1 409 320)"/><path d="M75.7376 11.1561C75.7376 11.4086 75.5295 11.6381 75.2519 11.6381 74.9975 11.6381 74.7663 11.4315 74.7663 11.1561 74.7663 10.9036 74.9744 10.674 75.2519 10.674 75.5295 10.697 75.7376 10.9036 75.7376 11.1561Z" fill="#685DC5" transform="matrix(1.02804 0 0 1 409 320)"/><path d="M0 15.2285 0.533682 15.2285 0.533682 19.6026C0.533682 20.7012 1.21841 21.3563 2.31598 21.3563 3.3934 21.3563 4.0882 20.7214 4.0882 19.6026L4.0882 15.2285 4.63195 15.2285 4.63195 19.6026C4.63195 20.3182 4.41043 20.8625 3.97744 21.2555 3.54444 21.6587 2.99064 21.8502 2.31598 21.8502 1.64132 21.8502 1.07743 21.6587 0.644445 21.2656 0.211459 20.8625 0 20.3081 0 19.6026L0 15.2285 0 15.2285Z" fill="#685DC5" transform="matrix(1.02804 0 0 1 409 320)"/><path d="M6.32361 21.7091 6.32361 15.2285 6.81701 15.2285 10.4219 20.7113 10.4219 15.2285 10.9656 15.2285 10.9656 21.7091 10.4622 21.7091 6.85729 16.2363 6.85729 21.7091 6.32361 21.7091Z" fill="#685DC5" transform="matrix(1.02804 0 0 1 409 320)"/><path d="M13.2716 15.2285 12.7379 15.2285 12.7379 21.7091 13.2716 21.7091 13.2716 15.2285Z" fill="#685DC5" transform="matrix(1.02804 0 0 1 409 320)"/><path d="M16.9268 21.7091 14.4094 15.4099 14.4094 15.2285 14.9129 15.2285 17.1986 21.0036 19.4643 15.2285 19.9778 15.2285 19.9778 15.4099 17.4705 21.7091 16.9268 21.7091Z" fill="#685DC5" transform="matrix(1.02804 0 0 1 409 320)"/><path d="M21.1056 21.7091 21.1056 15.2285 25.0428 15.2285 25.0428 15.7122 21.6393 15.7122 21.6393 18.2017 24.5997 18.2017 24.5997 18.6854 21.6393 18.6854 21.6393 21.2253 25.0528 21.2253 25.0528 21.7091 21.1056 21.7091Z" fill="#685DC5" transform="matrix(1.02804 0 0 1 409 320)"/><path d="M26.9962 18.5847 29.0302 18.5847C29.886 18.5847 30.3695 18.0706 30.3695 17.1535 30.3695 16.2363 29.876 15.7223 29.0302 15.7223L26.9962 15.7223 26.9962 18.5847ZM26.4525 21.7091 26.4525 15.2285 29.1109 15.2285C30.2687 15.2285 30.9233 15.9541 30.9233 17.1434 30.9233 18.1513 30.4803 18.7762 29.584 19.018L31.0442 21.5277 31.0442 21.7091 30.5306 21.7091 28.99 19.0584 26.9962 19.0584 26.9962 21.7091 26.4525 21.7091Z" fill="#685DC5" transform="matrix(1.02804 0 0 1 409 320)"/><path d="M31.9907 19.6127 32.5244 19.6127C32.5244 20.0158 32.6252 20.3484 32.8264 20.6306 33.2393 21.1749 33.8232 21.3563 34.4778 21.3563 35.5251 21.3563 36.1191 20.8423 36.1191 20.1368 36.1191 19.5119 35.6962 19.1793 34.6489 18.7862L33.924 18.5141C33.2999 18.2823 32.8465 18.0404 32.5948 17.8086 32.3329 17.5768 32.202 17.2341 32.202 16.8007 32.202 15.7928 33.0177 15.0974 34.3469 15.0974 35.7264 15.0974 36.6528 15.8029 36.6528 17.2845L36.1091 17.2845C36.1091 16.6999 35.938 16.2766 35.6055 16.0045 35.2733 15.7324 34.8605 15.6013 34.3469 15.6013 33.3601 15.6013 32.7458 16.075 32.7458 16.7705 32.7458 17.0829 32.8465 17.3248 33.038 17.5062 33.2292 17.6776 33.5717 17.859 34.065 18.0303L34.7597 18.2924C35.4143 18.5343 35.8978 18.7862 36.2098 19.0382 36.5219 19.2902 36.683 19.653 36.683 20.1166 36.683 21.1447 35.8978 21.8703 34.4577 21.8703 33.1991 21.8502 31.9907 21.1749 31.9907 19.6127Z" fill="#685DC5" transform="matrix(1.02804 0 0 1 409 320)"/><path d="M38.717 15.2285 38.1833 15.2285 38.1833 21.7091 38.717 21.7091 38.717 15.2285Z" fill="#685DC5" transform="matrix(1.02804 0 0 1 409 320)"/><path d="M41.8991 21.7091 41.8991 15.7122 39.855 15.7122 39.855 15.2285 44.4769 15.2285 44.4769 15.7122 42.4328 15.7122 42.4328 21.7091 41.8991 21.7091Z" fill="#685DC5" transform="matrix(1.02804 0 0 1 409 320)"/><path d="M47.6085 21.7091 47.6085 19.139 45.232 15.4099 45.232 15.2285 45.7557 15.2285 47.8804 18.625 50.0351 15.2285 50.5185 15.2285 50.5185 15.4099 48.1422 19.1188 48.1422 21.7091 47.6085 21.7091Z" fill="#685DC5" transform="matrix(1.02804 0 0 1 409 320)"/></g></svg>