<svg width="127" height="57" viewBox="0 0 127 57" fill="none" xmlns="http://www.w3.org/2000/svg">
<path d="M0 47.3013H0.782129V53.6886C0.782129 55.2927 1.78562 56.2494 3.39414 56.2494C4.97316 56.2494 5.9914 55.3222 5.9914 53.6886V47.3013H6.78829V53.6886C6.78829 54.7335 6.46363 55.5282 5.82907 56.1022C5.19452 56.6909 4.38287 56.9705 3.39414 56.9705C2.40542 56.9705 1.57901 56.6909 0.944458 56.1169C0.3099 55.5282 0 54.7188 0 53.6886V47.3013H0Z" fill="white"/>
<path d="M9.26749 56.7645V47.3013H9.99059L15.2736 55.3075V47.3013H16.0705V56.7645H15.3327L10.0496 48.773V56.7645H9.26749Z" fill="white"/>
<path d="M19.4499 47.3013H18.6678V56.7645H19.4499V47.3013Z" fill="white"/>
<path d="M24.8067 56.7645L21.1175 47.5662V47.3013H21.8553L25.2052 55.7343L28.5256 47.3013H29.2782V47.5662L25.6036 56.7645H24.8067Z" fill="white"/>
<path d="M30.931 56.7645V47.3013H36.701V48.0077H31.7131V51.6429H36.0517V52.3493H31.7131V56.058H36.7158V56.7645H30.931Z" fill="white"/>
<path d="M39.5639 52.2021H42.5449C43.7992 52.2021 44.5076 51.4515 44.5076 50.1123C44.5076 48.773 43.7845 48.0224 42.5449 48.0224H39.5639V52.2021ZM38.767 56.7645V47.3013H42.6629C44.36 47.3013 45.3192 48.3609 45.3192 50.0976C45.3192 51.5693 44.6699 52.4818 43.3565 52.835L45.4963 56.4996V56.7645H44.7437L42.4858 52.8938H39.5639V56.7645H38.767Z" fill="white"/>
<path d="M46.8835 53.7032H47.6656C47.6656 54.2919 47.8132 54.7776 48.1083 55.1896C48.7133 55.9844 49.5693 56.2493 50.5285 56.2493C52.0632 56.2493 52.9339 55.4987 52.9339 54.4685C52.9339 53.556 52.3141 53.0704 50.7793 52.4964L49.7168 52.099C48.8019 51.7605 48.1378 51.4073 47.7689 51.0688C47.3852 50.7303 47.1933 50.2299 47.1933 49.5971C47.1933 48.1254 48.3887 47.1099 50.3366 47.1099C52.3584 47.1099 53.716 48.1401 53.716 50.3035H52.9191C52.9191 49.4499 52.6683 48.8318 52.1813 48.4344C51.6943 48.0371 51.0892 47.8457 50.3366 47.8457C48.8904 47.8457 47.9902 48.5374 47.9902 49.5529C47.9902 50.0092 48.1378 50.3624 48.4182 50.6273C48.6986 50.8775 49.2003 51.1424 49.9234 51.3926L50.9417 51.7752C51.9009 52.1285 52.6092 52.4964 53.0667 52.8643C53.5242 53.2323 53.7603 53.7621 53.7603 54.4391C53.7603 55.9402 52.6092 56.9999 50.499 56.9999C48.6543 56.9704 46.8835 55.9844 46.8835 53.7032Z" fill="white"/>
<path d="M56.7412 47.3013H55.9591V56.7645H56.7412V47.3013Z" fill="white"/>
<path d="M61.4045 56.7645V48.0077H58.4088V47.3013H65.1823V48.0077H62.1866V56.7645H61.4045Z" fill="white"/>
<path d="M69.7718 56.7645V53.0116L66.2891 47.5662V47.3013H67.0565L70.1703 52.261L73.3283 47.3013H74.0366V47.5662L70.5539 52.9821V56.7645H69.7718Z" fill="white"/>
<path d="M2.02173 40.5166C0.678829 39.4128 0 37.838 0 35.7923H3.15803C3.15803 36.6606 3.39414 37.3376 3.83686 37.8969C4.78132 38.9712 5.96189 39.2656 7.3343 39.2656C9.54788 39.2656 10.7875 38.2648 10.7875 36.8814C10.7875 36.2338 10.4923 35.7334 9.9168 35.3802C9.34127 35.0123 8.29352 34.5413 6.75877 33.9674L6.52266 33.8938L6.10946 33.7319C4.10249 32.9666 2.65629 32.2307 1.78562 31.5243C0.914943 30.7884 0.501743 29.7435 0.501743 28.3454C0.501743 26.7412 1.07727 25.4313 2.25784 24.46C3.43842 23.4887 5.07646 22.9883 7.1277 22.9883C11.2597 22.9883 13.975 24.9604 13.975 29.1843H10.817C10.817 26.8736 9.23798 25.8729 7.11295 25.8729C5.03219 25.8729 3.68929 26.8148 3.68929 28.1099C3.68929 28.8163 3.95492 29.3756 4.50093 29.7141C5.04694 30.0526 6.10946 30.5088 7.65896 31.0533L8.02789 31.1858C9.03138 31.5243 9.8135 31.8334 10.389 32.0983C10.9941 32.3632 11.5991 32.7017 12.2632 33.1432C13.5471 34.0115 14.1373 35.1595 14.1373 36.7195C14.1373 39.9426 11.6581 42.1502 7.15722 42.1502C5.10597 42.1502 3.39414 41.5909 2.02173 40.5166Z" fill="white"/>
<path d="M21.2355 31.907H25.5004C26.9466 31.907 28.0238 30.8768 28.0238 29.0225C28.0238 27.1534 26.9466 26.1379 25.5004 26.1379H21.2355V31.907ZM18.0775 41.7529V23.3857H26.0464C29.2782 23.3857 31.2261 25.5639 31.2261 29.0225C31.2261 32.481 29.2782 34.6592 26.0464 34.6592H21.2355V41.7382H18.0775V41.7529Z" fill="white"/>
<path d="M37.1585 34.5856H42.2055L39.7115 27.5802L37.1585 34.5856ZM31.6246 41.7529V40.708L38.2063 23.3857H41.3053L47.887 40.708V41.7529H44.788L43.1499 37.22H36.1993L34.5465 41.7529H31.6246Z" fill="white"/>
<path d="M50.2628 35.5274V29.5963C50.2628 25.4019 52.8749 22.9883 57.4201 22.9883C59.368 22.9883 60.9765 23.5181 62.2604 24.5925C63.5443 25.6668 64.2084 27.2416 64.2084 29.3461V29.6111H61.0503V29.3461C61.0503 28.2129 60.6814 27.3446 59.914 26.7706C59.1467 26.1672 58.3055 25.8729 57.3906 25.8729C54.7343 25.8729 53.4209 27.1533 53.4209 29.3903V35.7482C53.4209 37.9852 54.7343 39.2656 57.3906 39.2656C58.3055 39.2656 59.1614 38.9712 59.914 38.3973C60.6814 37.7939 61.0503 36.9255 61.0503 35.7923V35.5274H64.2084V35.7923C64.2084 37.8969 63.5443 39.4716 62.2604 40.546C60.9765 41.6203 59.368 42.1502 57.4201 42.1502C52.8749 42.1502 50.2628 39.7365 50.2628 35.5274Z" fill="white"/>
<path d="M68.1633 41.7529V23.3857H79.969V26.1379H71.3213V31.23H78.7441V33.8497H71.3213V39.0008H79.9985V41.7529H68.1633Z" fill="white"/>
<path d="M0 18.7646V0.397461H3.15803V8.1829H10.7875V0.397461H13.9455V18.7646H10.7875V10.935H3.15803V18.7646H0Z" fill="white"/>
<path d="M22.3719 11.5973H27.4188L24.9248 4.59188L22.3719 11.5973ZM16.8379 18.7646V17.7197L23.4196 0.397461H26.5186L33.1003 17.7197V18.7646H30.0013L28.3633 14.2317H21.4126L19.7598 18.7646H16.8379Z" fill="white"/>
<path d="M39.1507 9.02178H43.3418C45.2897 9.02178 46.2637 8.05044 46.2637 6.07833C46.2637 4.10621 45.2897 3.13487 43.3418 3.13487H39.1507V9.02178ZM35.9927 18.7646V0.397461H43.9173C47.5033 0.397461 49.466 2.4726 49.466 6.03418C49.466 8.47724 48.3592 10.4199 46.2342 11.3324L49.6873 17.705V18.7499H46.5883L42.7958 11.6856H39.1655V18.7499H35.9927V18.7646Z" fill="white"/>
<path d="M56.5199 16.0125H61.316C63.0721 16.0125 63.9428 15.1736 63.9428 13.4958C63.9428 11.7592 63.0721 10.9056 61.316 10.9056H56.5199V16.0125ZM56.5199 8.2712H60.5929C62.3342 8.2712 63.2049 7.40288 63.2049 5.69568C63.2049 3.98848 62.3342 3.14959 60.5929 3.14959H56.5199V8.2712ZM53.3619 18.7646V0.397461H61.1241C64.415 0.397461 66.3924 2.07523 66.3924 5.32775C66.3924 7.19684 65.6546 8.47724 64.1789 9.24254C66.1268 9.94897 67.1008 11.4207 67.1008 13.6724C67.1008 16.9985 65.1824 18.7646 61.8325 18.7646H53.3619Z" fill="white"/>
<path d="M81.5775 6.46088C81.5775 4.38575 80.1313 2.88459 77.5046 2.88459C74.8778 2.88459 73.4316 4.38575 73.4316 6.46088V12.701C73.4316 14.7761 74.8778 16.2626 77.5046 16.2626C80.1313 16.2626 81.5775 14.7614 81.5775 12.701V6.46088ZM70.2588 6.60806C70.2588 2.48722 73.0479 0 77.4898 0C81.9317 0 84.7208 2.48722 84.7208 6.60806V12.5391C84.7208 16.66 81.9317 19.1472 77.4898 19.1472C73.0479 19.1472 70.2588 16.66 70.2588 12.5391V6.60806Z" fill="white"/>
<path d="M99.4779 0.397461H102.636V12.7894C102.636 14.791 102.001 16.3657 100.747 17.4842C99.5075 18.6174 97.7956 19.162 95.6706 19.162C93.5456 19.162 91.8337 18.6174 90.5646 17.4842C89.325 16.351 88.6905 14.7762 88.6905 12.7894V0.397461H91.8485V12.9366C91.8485 14.8498 93.2209 16.2774 95.6706 16.2774C98.1203 16.2774 99.4927 14.8645 99.4927 12.9366V0.397461H99.4779Z" fill="white"/>
<path d="M110.265 9.02178H114.456C116.404 9.02178 117.378 8.05044 117.378 6.07833C117.378 4.10621 116.404 3.13487 114.456 3.13487H110.265V9.02178ZM107.107 18.7646V0.397461H115.032C118.618 0.397461 120.581 2.4726 120.581 6.03418C120.581 8.47724 119.474 10.4199 117.349 11.3324L120.802 17.705V18.7499H117.688L113.896 11.6856H110.265V18.7499H107.107V18.7646Z" fill="white"/>
<path d="M127 18.7645C127 19.206 126.646 19.5592 126.203 19.5592C125.76 19.5592 125.406 19.206 125.406 18.7645C125.406 18.3229 125.76 17.9697 126.203 17.9697C126.631 17.9697 127 18.3229 127 18.7645Z" fill="white"/>
</svg>
